{"title":"SINGHAM RETURNS (2014) DVDSCR - x264 - MP3 - [1CD] - TEAMTNT EX","uid":10777126,"size":734792936,"categoryP":"video","categoryS":"handheld","magnet":"?xt=urn:btih:a8c1951a1ef8f4ea5ae29f5184425b1f79c30f18&amp;dn=+SINGHAM+RETURNS+%282014%29+DVDSCR+-+x264+-+MP3+-+%5B1CD%5D+-+TEAMTNT+EX&amp;tr=udp%3A%2F%2Ftracker.openbittorrent.com%3A80&amp;tr=udp%3A%2F%2Fopen.demonii.com%3A1337&amp;tr=udp%3A%2F%2Ftracker.coppersurfer.tk%3A6969&amp;tr=udp%3A%2F%2Fexodus.desync.com%3A6969","seeders":2,"leechers":1,"uploader":null,"files":1,"time":1408127933,"description":"~General~\n\nYear : 2014\n\nDirector : Rohit Shetty\n\nCast : Ajay Devgan, Kareena Kapoor Khan, Anupam Kher, Amole Gupte, Dayanand Shetty\n\nVideo : x264\n\nResolution : 640x272\n\nRuntime : 2Hr 18Min 21Sec\n\nAudio : Mp3\n\n~Video~\n\nFormat : AVC\nFormat/Info : Advanced Video Codec\nFormat profile : &lt;a class=&quot;__cf_email__&quot; href=&quot;/cdn-cgi/l/email-protection&quot; data-cfemail=&quot;236b4a444b636f100d13&quot;&gt;[email&amp;#160;protected]&lt;/a&gt;&lt;script cf-hash='f9e31' type=&quot;text/javascript&quot;&gt;\n/* &lt;![CDATA[ */!function(){try{var t=&quot;currentScript&quot;in document?document.currentScript:function(){for(var t=document.getElementsByTagName(&quot;script&quot;),e=t.length;e--;)if(t[e].getAttribute(&quot;cf-hash&quot;))return t[e]}();if(t&amp;&amp;t.previousSibling){var e,r,n,i,c=t.previousSibling,a=c.getAttribute(&quot;data-cfemail&quot;);if(a){for(e=&quot;&quot;,r=parseInt(a.substr(0,2),16),n=2;a.length-n;n+=2)i=parseInt(a.substr(n,2),16)^r,e+=String.fromCharCode(i);e=document.createTextNode(e),c.parentNode.replaceChild(e,c)}}}catch(u){}}();/* ]]&gt; */&lt;/script&gt;\nFormat settings, CABAC : Yes\nFormat settings, ReFrames : 4 frames\nCodec ID : V_MPEG4/ISO/AVC\nDuration : 2h 18mn\nBit rate : 626 Kbps\nWidth : 640 pixels\nHeight : 272 pixels\nDisplay aspect ratio : 2.35:1\nFrame rate mode : Constant\nFrame rate : 29.970 fps\nColor space : YUV\nChroma subsampling : 4:2:0\nBit depth : 8 bits\nScan type : Progressive\nBits/(Pixel*Frame) : 0.120\nStream size : 608 MiB (87%)\nLanguage : English\nDefault : Yes\nForced : No\n\n~Audio~\n\nFormat : MPEG Audio\nFormat version : Version 1\nFormat profile : Layer 3\nMode : Joint stereo\nMode extension : MS Stereo\nCodec ID : A_MPEG/L3\nCodec ID/Hint : MP3\nDuration : 2h 18mn\nBit rate mode : Constant\nBit rate : 80.0 Kbps\nChannel(s) : 2 channels\nSampling rate : 32.0 KHz\nCompression mode : Lossy\nDelay relative to video : 8ms\nStream size : 79.2 MiB (11%)\nDefault : Yes\nForced : No\n\nScreens&gt;&gt;\n &lt;a href=&quot;\nhttp://i.imgur.com/QS68YXy.png&quot; rel=&quot;nofollow&quot; target=&quot;_NEW&quot;&gt;\nhttp://i.imgur.com/QS68YXy.png&lt;/a&gt; &lt;a href=&quot;\nhttp://i.imgur.com/1gsDWsY.png&quot; rel=&quot;nofollow&quot; target=&quot;_NEW&quot;&gt;\nhttp://i.imgur.com/1gsDWsY.png&lt;/a&gt; &lt;a href=&quot;\nhttp://i.imgur.com/girmNF3.png&quot; rel=&quot;nofollow&quot; target=&quot;_NEW&quot;&gt;\nhttp://i.imgur.com/girmNF3.png&lt;/a&gt; &lt;a href=&quot;\nhttp://imgextra.biz/viewer.php?file=ivfpcl7qs10rpiklulq.png&quot; rel=&quot;nofollow&quot; target=&quot;_NEW&quot;&gt;\nhttp://imgextra.biz/viewer.php?file=ivfpcl7qs10rpiklulq.png&lt;/a&gt;\n\n","torrent":{"xt":"urn:btih:a8c1951a1ef8f4ea5ae29f5184425b1f79c30f18","amp;dn":"+SINGHAM+RETURNS+%282014%29+DVDSCR+-+x264+-+MP3+-+%5B1CD%5D+-+TEAMTNT+EX","amp;tr":["udp%3A%2F%2Ftracker.openbittorrent.com%3A80","udp%3A%2F%2Fopen.demonii.com%3A1337","udp%3A%2F%2Ftracker.coppersurfer.tk%3A6969","udp%3A%2F%2Fexodus.desync.com%3A6969"],"infoHash":"a8c1951a1ef8f4ea5ae29f5184425b1f79c30f18","infoHashBuffer":{"type":"Buffer","data":[168,193,149,26,30,248,244,234,90,226,159,81,132,66,91,31,121,195,15,24]},"announce":[],"urlList":[]}}